<svg xmlns="http://www.w3.org/2000/svg" viewBox="0 0 208.62 205.19"><defs><style>.cls-1{fill:#191919;}.cls-2{fill:#eabc00;}.cls-3{fill:#ffed3b;}.cls-4{fill:#ffde1a;}.cls-5{fill:#f2f2f2;}</style></defs><title>ScoreSaberLogo</title><g id="Logo"><g id="Border"><rect class="cls-1" x="35.64" width="137.77" height="20.97"/><rect class="cls-1" x="173.08" y="16.27" width="19.14" height="20.76"/><rect class="cls-1" x="187.38" y="34.99" width="21.24" height="138.97"/><rect class="cls-1" x="172.38" y="172.54" width="19.86" height="17.76"/><rect class="cls-1" x="35.41" y="189.19" width="137.95" height="16"/><rect class="cls-1" x="17.03" y="172.78" width="18.89" height="17.68"/><rect class="cls-1" y="35.11" width="24.16" height="138.73"/><rect class="cls-1" x="16.95" y="16.42" width="18.77" height="18.73"/></g><g id="Base"><g id="Bottom"><rect class="cls-2" x="35.51" y="172.32" width="138.16" height="17.95"/></g><g id="Right"><rect class="cls-3" x="171.95" y="35.03" width="20.32" height="138.81"/></g><g id="Top"><rect class="cls-3" x="35.62" y="16.54" width="137.84" height="33.51"/></g><g id="Left"><rect class="cls-2" x="16.92" y="35.03" width="29.84" height="138.59"/></g><rect class="cls-4" x="35.52" y="35.03" width="137.69" height="138.81"/></g><g id="Arrow"><rect class="cls-5" x="75.3" y="53.51" width="61.89" height="12.32"/><rect class="cls-5" x="120" y="78.32" width="17.68" height="14.59"/><rect class="cls-5" x="75.19" y="78.27" width="17.41" height="15.03"/><rect class="cls-5" x="92.38" y="93.24" width="28.11" height="12.32"/><rect class="cls-5" x="136.86" y="65.84" width="17.35" height="13.14"/><rect class="cls-5" x="58.73" y="65.62" width="17.22" height="13.14"/></g></g></svg>