<?xml version="1.0" encoding="UTF-8"?>
<svg id="Layer_2" data-name="Layer 2" xmlns="http://www.w3.org/2000/svg" viewBox="0 0 112.02 112.02">
  <defs>
    <style>
      .cls-1 {
        fill: #4a266e;
      }

      .cls-2 {
        fill: #fcc73e;
      }

      .cls-3 {
        fill: #937fbb;
      }

      .cls-4 {
        fill: #6851a2;
      }
    </style>
  </defs>
  <g id="Layer_1-2" data-name="Layer 1">
    <g>
      <rect class="cls-2" x="0" y="0" width="112.02" height="112.02" rx="20.19" ry="20.19"/>
      <g>
        <path class="cls-1" d="m22.94,26.72v62.36c0,5.85.24,9.27,1.79,10.81-4.7-1.75-13.58-5.64-13.58-10.17V26.08c0-8.25,6.68-14.93,14.93-14.93h10.62c.73,0,1.2.77.87,1.42-1.55,2.98-1.55,5.96,0,8.95.34.65-.14,1.42-.87,1.42h-9.99c-2.09,0-3.78,1.69-3.78,3.78Z"/>
        <path class="cls-1" d="m100.86,26.08v63.64c0,4.53-8.88,8.42-13.58,10.17.05-.05.1-.1.14-.15.02-.03.05-.05.07-.08.02-.03.05-.05.07-.08.05-.06.1-.13.14-.19.02-.02.03-.05.05-.07.02-.03.04-.06.06-.09.04-.06.08-.13.11-.19.04-.07.07-.14.11-.21.02-.03.03-.07.05-.11.02-.04.03-.07.05-.11.03-.08.07-.16.1-.25.01-.03.03-.07.04-.1.04-.12.08-.25.12-.38.03-.09.05-.17.08-.27.01-.04.03-.09.03-.14.07-.28.13-.57.19-.89,0-.05.02-.11.03-.16.02-.11.03-.22.05-.33,0-.06.02-.11.02-.17.02-.17.04-.34.06-.52.03-.25.05-.52.07-.79.01-.18.03-.36.04-.54,0-.14.02-.27.02-.41,0-.07,0-.14.01-.21s0-.14,0-.22c0-.13.01-.26.02-.4,0-.06,0-.12,0-.19,0-.1,0-.2,0-.31.01-.44.02-.91.03-1.39,0-.06,0-.13,0-.19,0-.54,0-1.1,0-1.69V26.72c0-2.09-1.69-3.78-3.78-3.78h-9.99c-.73,0-1.2-.77-.87-1.42,1.55-2.98,1.55-5.96,0-8.95-.34-.65.14-1.42.87-1.42h10.63c8.24,0,14.93,6.68,14.93,14.93Z"/>
        <path class="cls-1" d="m64.68,45.9c-5.83-1.83-11.52-1.83-17.35,0-3.17-4.64-4.44-8.36-3.9-11.13,8.35-2.69,16.79-2.69,25.14,0,.54,2.77-.72,6.49-3.9,11.13Z"/>
        <path class="cls-3" d="m53.16,83.79l-1.43,2.09-6.87,10.1c-2.08,3.06-5.52,4.88-9.22,4.88h-6.4c-1.17,0-2.33-.2-3.43-.59-.33-.11-.69-.25-1.08-.39-1.55-1.53-1.79-4.95-1.79-10.81h10.32c1.28,0,2.48-.63,3.2-1.69l8.15-11.97,1.43-2.09,7.13,10.47Z"/>
        <path class="cls-3" d="m74.9,51.83l-1.54,2.27s0,.02-.02.02l-7.36,10.82-7.13-10.48,5.82-8.56c3.17-4.64,4.44-8.36,3.9-11.13.25.08.5.16.75.25,3.3,1.13,7.55,13.91,5.58,16.81Z"/>
        <polygon class="cls-4" points="56.01 79.6 53.16 83.79 46.03 73.32 48.88 69.13 56.01 79.6"/>
        <polygon class="cls-4" points="65.99 64.93 63.13 69.13 56.01 58.65 58.86 54.46 65.99 64.93"/>
        <path class="cls-3" d="m89.08,89.08c0,.59,0,1.15,0,1.69,0,.06,0,.13,0,.19,0,.48-.02.95-.03,1.39,0,.1,0,.21,0,.31,0,.06,0,.12,0,.19,0,.14-.01.27-.02.4,0,.07,0,.14,0,.22s0,.14-.01.21c0,.14-.02.28-.02.41-.01.19-.03.37-.04.54-.02.27-.05.54-.07.79-.02.18-.04.36-.06.52,0,.06-.02.11-.02.17-.02.11-.03.22-.05.33,0,.05-.02.11-.03.16-.06.31-.12.61-.19.89-.01.05-.02.09-.03.14-.03.09-.05.18-.08.27-.04.13-.08.25-.12.38l-.04.1c-.03.08-.07.16-.1.25-.02.04-.03.07-.05.11-.02.04-.03.07-.05.11-.03.07-.07.14-.11.21-.04.07-.07.13-.11.19-.02.03-.04.06-.06.09-.01.02-.03.05-.05.07-.05.07-.09.13-.14.19-.02.03-.04.05-.07.08-.02.03-.04.05-.07.08-.05.05-.09.1-.14.15-.39.15-.76.28-1.08.39-1.1.39-2.26.59-3.43.59h-6.4c-3.69,0-7.14-1.82-9.22-4.88l-6.87-10.1-4.28-6.29-7.13-10.48-10.21-15.01-1.56-2.29c-1.97-2.9,2.28-15.68,5.58-16.81.25-.08.5-.17.75-.25-.54,2.77.72,6.49,3.9,11.13l8.67,12.75,7.13,10.48,4.28,6.29,8.15,11.97c.72,1.06,1.92,1.69,3.2,1.69h10.32Z"/>
      </g>
    </g>
  </g>
</svg>