<svg id="ScoreSaber" xmlns="http://www.w3.org/2000/svg" viewBox="0 0 50 50"><defs><style>.cls-1{fill:#221f1c;}.cls-2{fill:#feec3e;}.cls-3{fill:#eabd01;}.cls-4{fill:#ffde18;}.cls-5{fill:#fff;}</style></defs><g id="Border"><rect id="Bottom" class="cls-1" x="9" y="40" width="32" height="10"/><rect id="Top" class="cls-1" x="9" width="32" height="10"/><rect id="Top_Left" data-name="Top Left" class="cls-1" x="4" y="4" width="10" height="10"/><rect id="Top_Right" data-name="Top Right" class="cls-1" x="36" y="4" width="10" height="10"/><rect id="Right" class="cls-1" x="40" y="9" width="10" height="32"/><rect id="Left" class="cls-1" y="9" width="10" height="32"/><rect id="Bottom_Right" data-name="Bottom Right" class="cls-1" x="38" y="38" width="8" height="8"/><rect id="Bottom_left" data-name="Bottom left" class="cls-1" x="4" y="36" width="10" height="10"/></g><g id="Base_Colour" data-name="Base Colour"><rect id="Right-2" data-name="Right" class="cls-2" x="25" y="9" width="21" height="32"/><rect id="Top-2" data-name="Top" class="cls-2" x="9" y="4" width="32" height="21"/><rect id="Left-2" data-name="Left" class="cls-3" x="4" y="9" width="21" height="32"/><rect id="Bottom-2" data-name="Bottom" class="cls-3" x="9" y="25" width="32" height="21"/><rect id="Middle" class="cls-4" x="9" y="9" width="32" height="32"/></g><g style="opacity:0" id="Aww_Man" data-name="Aww Man"><rect id="Aww_Man-2" data-name="Aww Man" class="cls-3" x="21" y="25" width="8" height="8"/><rect id="Aww_Man-3" data-name="Aww Man" class="cls-3" x="13" y="13" width="8" height="8"/><rect id="Aww_Man-4" data-name="Aww Man" class="cls-3" x="29" y="13" width="8" height="8"/><rect id="Aww_Man-5" data-name="Aww Man" class="cls-3" x="21" y="21" width="8" height="4"/><rect id="Aww_Man-6" data-name="Aww Man" class="cls-3" x="17" y="25" width="4" height="12"/><rect id="Aww_Man-7" data-name="Aww Man" class="cls-3" x="29" y="25" width="4" height="12"/></g><g id="Arrow"><rect id="Top-3" data-name="Top" class="cls-5" x="18" y="14" width="14" height="3"/><rect id="Bottom-3" data-name="Bottom" class="cls-5" x="22" y="23" width="6" height="3"/><rect id="Lower_Right" data-name="Lower Right" class="cls-5" x="28" y="20" width="4" height="3"/><rect id="Lower_left" data-name="Lower left" class="cls-5" x="18" y="20" width="4" height="3"/><rect id="Right-3" data-name="Right" class="cls-5" x="32" y="17" width="4" height="3"/><rect id="Left-3" data-name="Left" class="cls-5" x="14" y="17" width="4" height="3"/></g></svg>