<?xml version="1.0" standalone="no"?>
<!DOCTYPE svg PUBLIC "-//W3C//DTD SVG 20010904//EN"
 "http://www.w3.org/TR/2001/REC-SVG-20010904/DTD/svg10.dtd">
<svg version="1.0" xmlns="http://www.w3.org/2000/svg"
 width="836.000000pt" height="836.000000pt" viewBox="0 0 836.000000 836.000000"
 preserveAspectRatio="xMidYMid meet">
<g transform="translate(0.000000,836.000000) scale(0.100000,-0.100000)"
fill="#000000" stroke="none">
<path d="M1430 8243 c-1 -27 -1 -175 -1 -330 l-1 -282 -370 0 c-203 0 -372 -2
-374 -4 -6 -6 -11 -127 -5 -133 8 -8 7 -53 -2 -47 -4 2 -5 -8 -1 -23 4 -16 7
-33 6 -39 -2 -17 -4 -120 -2 -125 5 -13 5 -58 0 -55 -3 2 -5 -35 -5 -81 0 -46
4 -84 8 -84 5 0 5 -4 2 -10 -9 -14 -12 -91 -4 -96 3 -2 4 -14 2 -27 l-4 -23
-192 1 c-106 1 -200 -2 -209 -7 -9 -4 -19 -4 -22 0 -6 10 -127 9 -143 -1 -6
-4 -14 -4 -17 1 -3 5 -24 8 -48 8 l-43 -1 -3 -2780 -2 -2780 340 1 c301 0 340
-2 341 -15 0 -9 1 -158 1 -333 l1 -316 95 -1 c52 -1 98 -3 102 -6 5 -3 11 -2
14 3 3 4 30 5 61 2 31 -3 58 -3 60 0 2 3 29 3 60 0 31 -3 58 -3 60 0 2 3 29 3
60 0 31 -3 58 -3 60 0 2 3 29 3 60 0 31 -3 58 -3 61 1 2 4 13 5 23 2 19 -5 20
-16 20 -267 0 -143 0 -276 1 -293 l0 -33 2763 0 2764 0 1 278 c0 152 1 286 1
298 1 20 4 20 359 20 196 -1 366 0 377 2 20 3 20 11 20 329 l0 326 73 1 c39 1
72 -3 72 -7 0 -5 5 -5 11 -1 7 4 46 6 88 5 89 -2 83 -2 141 -1 25 0 53 0 63 0
9 0 34 0 55 0 20 0 59 0 85 0 27 0 53 2 58 5 5 4 9 1080 9 2784 l0 2779 -297
0 c-164 1 -312 1 -329 1 l-31 1 -1 348 c0 191 0 359 -1 373 l-1 26 -370 0
c-204 0 -373 2 -376 5 -2 3 -5 150 -5 327 l0 321 -2759 0 -2760 0 0 -47z"/>
</g>
</svg>
