<svg xmlns="http://www.w3.org/2000/svg" width="571" height="581" viewBox="0 0 571 581">
  <g id="dpvr_e4controller_right" transform="translate(-3978 -1514)">
    <g id="dpvr_e4_controller_right-01" transform="translate(3977.999 1514.1)">
      <g id="组_171" data-name="组 171">
        <g id="组_170" data-name="组 170">
          <g id="组_154" data-name="组 154">
            <path id="路径_178" data-name="路径 178" d="M258.3,201.8a120.571,120.571,0,0,1,23.1-2.3v-1.9a124.854,124.854,0,0,0-23.5,2.3c-3.1.7-12.4,2.8-12.5,2.8l.4,1.8C246,204.6,255.2,202.4,258.3,201.8Z" fill="#fff" stroke="#fff" stroke-width="1"/>
          </g>
          <g id="组_155" data-name="组 155">
            <path id="路径_179" data-name="路径 179" d="M258,354.1c-16.5-6.7-27.1-32.5-30.8-43.3-.8-2.5-1.4-5.1-1.8-7-1.5-7.4-7-8.4-7.3-8.4h-.2c-18.4.6-42-11.1-60.2-29.8-17.3-17.6-26.8-38.3-25.9-56.8.7-13.6,9.7-52.5,79.3-120.2C232.5,67.9,302.8,8.7,345,8.7a95.641,95.641,0,0,1,59.7,21.7c17.5,14.4,28.4,34,30.6,55,4.5,42.2-79.9,121-87.1,127.7l-1-.6c32-30.8,55-57.4,68.4-79,9.6-15.6,14.1-28.4,13.4-37.7-.6-6.7-3.7-9.3-4.2-9.6-22-19.8-100.1,40.2-103.5,42.7-30.6,24.9-56.1,49.6-75.9,73.3l-.1.1c-36,43.3-40.2,68.1-40.4,69.2,0,.4-.6,8.8,2.9,12.8a6.242,6.242,0,0,0,4.3,2.2c.9.2,7.2.8,13.4-12.6l-1.7-.7c-5.9,12.6-11.3,11.6-11.3,11.6h-.2a4.7,4.7,0,0,1-3.1-1.6c-3-3.5-2.4-11.3-2.4-11.3.1-.3,4.4-25.4,40-68.2l.1-.1c19.6-23.6,45.1-48.1,75.6-73,.8-.7,80.4-61.5,101.2-42.8l.1.1c0,.1,3,2.2,3.5,8.5,2.2,30-50.5,85.4-82.2,115.9l-.9.8,4.5,2.4.5-.5A600.688,600.688,0,0,0,395,167.3c30.2-35.5,44.4-63.1,42.4-82C435,63.9,423.9,43.8,406,29.1,388.8,15,366.6,6.9,345.1,6.9c-42.7,0-113.7,59.6-135.2,80.5C181,115.6,132,168.8,130,208.8c-.9,18.9,8.7,40.1,26.4,58.2,18.6,18.9,42.7,30.8,61.5,30.3.7.1,4.6,1.2,5.7,6.9a43.126,43.126,0,0,0,1.9,7.2c3.8,11.1,14.6,37.5,31.8,44.4Z" fill="#fff" stroke="#fff" stroke-width="1"/>
          </g>
          <g id="组_156" data-name="组 156">
            <path id="路径_180" data-name="路径 180" d="M420.2,563.7c1.2-.7,12.2-7,17.7-30,9.6-39.2-4.5-96-17.9-136.8-.3-1-33.7-98.4-41.3-142.8a51.852,51.852,0,0,0-10.5-23.5c-7.2-9-20.7-21.1-43.9-27.7a27.382,27.382,0,0,0-3.4-.8l-.5,1.8c2.1.5,3.3.8,3.3.8,22.8,6.5,36,18.4,43,27.1a48.821,48.821,0,0,1,10.1,22.7c7.7,44.7,41,142.2,41.4,143.1,13.3,40.3,27.2,96.6,17.9,135.4-4.4,18.5-13,27.2-17,29.1l-.2.1c-10.8,8.5-21.6,11.7-32.3,9.5-11.5-2.3-20.8-10.8-26.6-17.3a75.927,75.927,0,0,1-9.9-14c-27.6-63-50.7-112.8-68.5-147.9l-1.7.8c17.7,35,40.7,84.8,68.5,147.8.6,1.1,14.8,27.5,37.7,32.3a33.25,33.25,0,0,0,7,.7C402.1,574.1,411.1,570.5,420.2,563.7Z" fill="#fff" stroke="#fff" stroke-width="1"/>
          </g>
          <path id="路径_181" data-name="路径 181" d="M213,254.5c27.3,27.7,63.8,28.4,64.2,28.4,0,0,8.6.2,11.4.3,58.1.7,75.9-24.5,76-24.7l.1-.1a12.964,12.964,0,0,0,3-10.5c-.7-6-4.1-13.2-20.3-25.8a93.474,93.474,0,0,0-27.5-14l.6-1.8a100.235,100.235,0,0,1,28.1,14.3c13.2,10.3,20,18,21,27.1a15.623,15.623,0,0,1-3.4,11.9c-1.3,1.7-19.4,25.6-77.5,25.6-3.8,0-7.7.1-11.9-.3-2.9-.2-38.1-.7-65.4-29.2Z" fill="#fff" stroke="#fff" stroke-width="1"/>
          <g id="组_157" data-name="组 157">
            <path id="路径_182" data-name="路径 182" d="M278.2,203.8l-.1-1.9a212.142,212.142,0,0,0-36.8,5.8l.5,1.8A210.985,210.985,0,0,1,278.2,203.8Z" fill="#fff" stroke="#fff" stroke-width="1"/>
          </g>
          <g id="组_158" data-name="组 158">
            <path id="路径_183" data-name="路径 183" d="M274.5,270.7h-.7c-5-.1-11.8-1.1-16-5.4a7.8,7.8,0,0,1-1.6-6.2c.6-2.2,2.4-4.2,5.5-5.6a39.173,39.173,0,0,1,29.2-1.1l.1.1c.3.2,6.1,3.2,6,7.5-.1,2.8-2.4,5.3-7.1,7.5A34.888,34.888,0,0,1,274.5,270.7Zm3.5-18.6a39.788,39.788,0,0,0-15.4,3.1h0c-2.5,1.2-4.1,2.7-4.5,4.4a5.874,5.874,0,0,0,1.1,4.5c3.7,3.7,10.1,4.7,14.7,4.8a34.054,34.054,0,0,0,15.3-3.3c3.8-1.9,6-3.8,6-5.8.1-2.5-3.5-5-4.9-5.7A34.058,34.058,0,0,0,278,252.1Z" fill="#fff" stroke="#fff" stroke-width="1"/>
          </g>
          <g id="组_159" data-name="组 159">
            <path id="路径_184" data-name="路径 184" d="M297.7,210.3H297c-5-.1-11.8-.9-16-4.6-.1-.1-2.5-2.4-2-5.2.4-2.2,2.4-3.8,5.9-5.2.9-.5,11.4-5.2,25.7-1.6a25.84,25.84,0,0,1,7.1,3.4c1.2,1,2.8,2.6,2.5,4.6-.3,2.2-2.6,3.9-7.2,5.8A39.582,39.582,0,0,1,297.7,210.3Zm2.3-15.9a37.519,37.519,0,0,0-14.3,2.7h-.1c-2.8,1-4.5,2.3-4.8,3.7-.4,1.8,1.4,3.5,1.4,3.5,3.7,3.3,10,4,14.7,4.1a40.082,40.082,0,0,0,15.4-2.8c5.1-2,6-3.6,6.1-4.3.1-.8-.5-1.7-1.9-2.8a24.959,24.959,0,0,0-6.4-3A40.519,40.519,0,0,0,300,194.4Z" fill="#fff" stroke="#fff" stroke-width="1"/>
          </g>
          <g id="组_160" data-name="组 160">
            <path id="路径_185" data-name="路径 185" d="M335.7,262.3H335c-4.8-.1-11.3-1.1-15.4-5.4a8.212,8.212,0,0,1-1.5-6.3c.6-2.3,2.2-4.2,5.2-5.6.7-.4,14.6-7.6,28-1,.3.2,5.8,3.2,5.7,7.5-.1,2.8-2.3,5.3-6.8,7.5A33.416,33.416,0,0,1,335.7,262.3Zm3.6-19a34.753,34.753,0,0,0-15.1,3.6h0c-2.4,1.1-3.9,2.6-4.3,4.3-.6,2.3,1.1,4.6,1.1,4.6,3.6,3.7,9.6,4.7,14,4.8a30.533,30.533,0,0,0,14.5-3.3c3.7-1.9,5.7-3.8,5.7-5.8.1-2.7-3.4-5.1-4.7-5.8A22.3,22.3,0,0,0,339.3,243.3Z" fill="#fff" stroke="#fff" stroke-width="1"/>
          </g>
          <g id="组_161" data-name="组 161">
            <path id="路径_186" data-name="路径 186" d="M278.2,275.8c.7,0,17-.7,19.5-10.2a6.472,6.472,0,0,0,.1-2.4l-.7-4.3-1.9.3.7,4.3a4.581,4.581,0,0,1-.1,1.7c-2.2,8.1-17.5,8.9-17.7,8.9-13.4.4-18.1-3.7-19.8-6.2a4.618,4.618,0,0,1-.7-2.6l.4-4.9-1.9-.2-.4,4.9a5.556,5.556,0,0,0,.9,3.8c1.9,2.7,6.7,7.1,19.8,7.1A5.535,5.535,0,0,0,278.2,275.8Z" fill="#fff" stroke="#fff" stroke-width="1"/>
          </g>
          <g id="组_162" data-name="组 162">
            <path id="路径_187" data-name="路径 187" d="M251,247.6c4.7-2.2,7.1-4.8,7.1-7.5,0-4.4-5.7-7.4-6-7.5H252c-14.2-5.5-28.7.7-29.2,1l.7,1.7c.2,0,14.3-6.3,27.7-1,1.4.7,4.9,3.1,4.9,5.7,0,2-2.1,3.9-6,5.8a35.136,35.136,0,0,1-15.3,3.3c-5.4-.1-12.6-2.2-16.2-6.7l-1.5,1.1c4.3,5.3,12.2,7.4,17.7,7.5h.7A37.629,37.629,0,0,0,251,247.6Z" fill="#fff" stroke="#fff" stroke-width="1"/>
          </g>
          <g id="组_163" data-name="组 163">
            <path id="路径_188" data-name="路径 188" d="M239.1,256.1c.7,0,17-.7,19.5-10.2a6.472,6.472,0,0,0,.1-2.4l-.7-4.3-1.9.3.7,4.3a4.581,4.581,0,0,1-.1,1.7c-2.2,8.1-17.5,8.9-17.7,8.9-13.4.4-18.1-3.7-19.8-6.2a4.845,4.845,0,0,1-.7-2.6l.4-3.2-1.9-.2-.4,3.2a5.556,5.556,0,0,0,.9,3.8c1.9,2.7,6.7,7.1,19.8,7.1A4.967,4.967,0,0,0,239.1,256.1Z" fill="#fff" stroke="#fff" stroke-width="1"/>
          </g>
          <g id="组_164" data-name="组 164">
            <path id="路径_189" data-name="路径 189" d="M300.4,220c.7,0,18.3-.9,20.6-9.8.1-.3,2.4-6.7-1.2-10.7l-1.4,1.2c2.9,3.2.8,8.8.8,8.9-2.1,7.7-18.7,8.5-18.9,8.5-13.2.8-19.2-5.4-19.3-5.5-4.6-4.8-.1-11.7.1-12l-1.6-1c-.2.4-5.5,8.4.1,14.3.2.3,5.8,6.2,18.1,6.2A26.225,26.225,0,0,0,300.4,220Z" fill="#fff" stroke="#fff" stroke-width="1"/>
          </g>
          <g id="组_165" data-name="组 165">
            <path id="路径_190" data-name="路径 190" d="M305.8,230.9a6.975,6.975,0,0,0,4.3-5.7l.8-7.6-1.9-.2-.8,7.6a4.817,4.817,0,0,1-3.1,4.1,15.233,15.233,0,0,1-11.4.1,5.092,5.092,0,0,1-3.1-4.2l-.6-7-1.9.2.7,6.9a6.84,6.84,0,0,0,4.2,5.8,15.529,15.529,0,0,0,6.2,1.2A16.845,16.845,0,0,0,305.8,230.9Z" fill="#fff" stroke="#fff" stroke-width="1"/>
          </g>
          <g id="组_166" data-name="组 166">
            <path id="路径_191" data-name="路径 191" d="M328.1,222.4c0-3.9-3.6-7.4-10-9.8l-.7,1.8c5.6,2.1,8.8,5.1,8.8,8.1,0,6-12.4,11.1-27,11.1s-27-5.1-27-11.1c0-2.9,3-5.8,8.2-7.9l-.7-1.8c-6,2.4-9.4,5.8-9.4,9.6,0,7.2,12.7,12.9,28.9,12.9C315.6,235.2,328.2,229.6,328.1,222.4Z" fill="#fff" stroke="#fff" stroke-width="1"/>
          </g>
          <g id="组_167" data-name="组 167">
            <path id="路径_192" data-name="路径 192" d="M312.5,289.6a169.231,169.231,0,0,0,32.5-8.1c21.5-8,33-19.7,32.5-32.7l-1.9.1c1,29.3-62.8,38.7-63.4,38.8-21.5,3-52.7,3.6-79.2-10.5-15.7-8.4-22.4-18.3-22.5-18.4l-1.6,1c.3.5,6.9,10.3,23,18.9,17.9,9.6,37.9,12.6,55.8,12.6A168.54,168.54,0,0,0,312.5,289.6Z" fill="#fff" stroke="#fff" stroke-width="1"/>
          </g>
          <g id="组_168" data-name="组 168">
            <path id="路径_193" data-name="路径 193" d="M269.5,399.6a4.032,4.032,0,0,1-2.2-.6,4.8,4.8,0,0,1-2.1-3.3c-2.9-14.1-15.5-32.6-15.6-32.8a4.2,4.2,0,0,1-.8-3.5,4.829,4.829,0,0,1,2.4-2.9l.1-.1,9.2-3.1a6.691,6.691,0,0,1,7.1,2.1c11.6,13.8,14.1,27.8,14.5,35a6.7,6.7,0,0,1-4.4,6.6l-5.7,2A9.871,9.871,0,0,1,269.5,399.6Zm-17.7-41.5a2.839,2.839,0,0,0-1.4,1.6,2.519,2.519,0,0,0,.6,1.9c.6.8,13,19,16,33.6.1.1.3,1.4,1.2,2a3.331,3.331,0,0,0,3.1,0l5.7-2a4.66,4.66,0,0,0,3.1-4.7A58.806,58.806,0,0,0,266,356.6a4.631,4.631,0,0,0-5.1-1.4Z" fill="#fff" stroke="#fff" stroke-width="1"/>
          </g>
          <g id="组_169" data-name="组 169">
            <path id="路径_194" data-name="路径 194" d="M268.3,397.5c-2.5-25-8.5-33.9-13.1-37a7.6,7.6,0,0,0-6-1.4l.6,1.8a5.428,5.428,0,0,1,4.4,1.1c4.2,2.8,9.8,11.3,12.3,35.7Z" fill="#fff" stroke="#fff" stroke-width="1"/>
          </g>
        </g>
        <g id="组_175" data-name="组 175" transform="translate(221.942 303.037)">
          <path id="路径_172" data-name="路径 172" d="M347.4,348.4a.875.875,0,0,0,.9-.6.992.992,0,0,0-.5-1.3c-8.6-3.5-12.5-8.6-17.1-17.2-7.9-14.8-4.7-24.8-4.6-24.9a1.012,1.012,0,1,0-1.9-.7c-.1.4-3.5,10.9,4.8,26.5,4.7,8.9,9,14.4,18.1,18.1C347.1,348.4,347.3,348.4,347.4,348.4Z" transform="translate(-323.423 -303.037)" fill="#fff" stroke="#fff" stroke-width="1"/>
        </g>
      </g>
      <g id="组_172" data-name="组 172">
        <path id="路径_196" data-name="路径 196" d="M239.7,235.5a3.252,3.252,0,0,1,1.6,1.2c.4.5.6,1,.4,1.4a3.278,3.278,0,0,1-.6.8,6.648,6.648,0,0,1,2.1.3,4.177,4.177,0,0,1,1.5,1.1,1.837,1.837,0,0,1,.5,1.5,1.086,1.086,0,0,1-.4.9,2.421,2.421,0,0,1-1.1.8c-.5.2-1.1.4-1.7.6l-5.8,1.7-6.9-8.7,6.2-1.8A9.409,9.409,0,0,1,239.7,235.5Zm-6.5,2.6,1.5,1.9,3.1-.9a3.256,3.256,0,0,0,1.2-.6c.2-.2.2-.5-.1-.9a1.612,1.612,0,0,0-1.3-.6,4.973,4.973,0,0,0-1.6.3Zm2.7,3.4,1.9,2.3,3.1-.9a4.78,4.78,0,0,0,1.2-.5c.4-.3.4-.8,0-1.3a1.865,1.865,0,0,0-1.6-.7,9.323,9.323,0,0,0-1.4.2Z" fill="#fff" stroke="#fff" stroke-width="1"/>
      </g>
      <g id="组_173" data-name="组 173">
        <path id="路径_197" data-name="路径 197" d="M270.4,256l3.8-.9,13,7.4-3.6.9-2.6-1.5-5.9,1.4.4,2.1-3.5.8Zm4.4,5.5,4.1-1-4.9-3Z" fill="#fff" stroke="#fff" stroke-width="1"/>
      </g>
      <path id="路径_198" data-name="路径 198" d="M339.2,244.9a2.038,2.038,0,0,0-2-.2c-.6.3-.6.8-.1,1.2l.6.4a9.778,9.778,0,0,0-4.9.9c-3.1,1.6-3.3,4.7-.5,6.9h0l4.8,3.7a2.038,2.038,0,0,0,2,.2h0c.6-.3.6-.8.1-1.2l-.6-.5a9.778,9.778,0,0,0,4.9-.9c3-1.6,3.3-4.6.6-6.8h0Zm2.4,9.1a7.383,7.383,0,0,1-6.9-.6l-.3-.2h0c-1.8-1.4-1.6-3.4.4-4.4a7.383,7.383,0,0,1,6.9.6l.4.3A2.437,2.437,0,0,1,341.6,254Z" fill="#fff" stroke="#fff" stroke-width="1"/>
    </g>
    <rect id="矩形_7" data-name="矩形 7" width="571" height="581" transform="translate(3978 1514)" fill="none"/>
  </g>
</svg>
